<?xml version="1.0" encoding="UTF-8" standalone="no"?>
<!-- Created with Inkscape (http://www.inkscape.org/) -->

<svg
   width="210mm"
   height="297mm"
   viewBox="0 0 210 297"
   version="1.1"
   id="svg957"
   inkscape:version="1.1 (1:1.1+202105261517+ce6663b3b7)"
   sodipodi:docname="drawing.svg"
   xmlns:inkscape="http://www.inkscape.org/namespaces/inkscape"
   xmlns:sodipodi="http://sodipodi.sourceforge.net/DTD/sodipodi-0.dtd"
   xmlns:xlink="http://www.w3.org/1999/xlink"
   xmlns="http://www.w3.org/2000/svg"
   xmlns:svg="http://www.w3.org/2000/svg">
  <sodipodi:namedview
     id="namedview959"
     pagecolor="#ffffff"
     bordercolor="#666666"
     borderopacity="1.0"
     inkscape:pageshadow="2"
     inkscape:pageopacity="0.0"
     inkscape:pagecheckerboard="0"
     inkscape:document-units="mm"
     showgrid="false"
     inkscape:zoom="0.25774417"
     inkscape:cx="56.257335"
     inkscape:cy="-120.2743"
     inkscape:window-width="1920"
     inkscape:window-height="1022"
     inkscape:window-x="0"
     inkscape:window-y="28"
     inkscape:window-maximized="1"
     inkscape:current-layer="layer1" />
  <defs
     id="defs954">
    <pattern
       id="SVGID_1_"
       xlink:href="#Unnamed_Pattern"
       patternTransform="matrix(0.34462114,0,0,0.34462114,-231.02331,-34.738932)" />
    <pattern
       y="1080"
       width="193"
       height="101.5"
       patternUnits="userSpaceOnUse"
       id="Unnamed_Pattern"
       viewBox="0 -101.5 193 101.5"
       style="overflow:visible">
      <g
         id="g8">
        <rect
           y="-101.5"
           class="st0"
           width="193"
           height="101.5"
           id="rect4" />
        <path
           class="st1"
           d="M30.8-75.6v0.4h-9.6C9.6-75.2,0-66,0-54.3l0-0.2v29.9V0h36.3v-11.1c0-7.4,5.7-13.3,13.2-13.3h118    c14.1,0,25.6-11.6,25.6-25.7v-51.3H56.6C42.5-101.5,30.8-89.7,30.8-75.6z"
           id="path6" />
      </g>
    </pattern>
  </defs>
  <g
     inkscape:label="Layer 1"
     inkscape:groupmode="layer"
     id="layer1">
    <path
       class="st2"
       d="M 126.96914,163.28038 H 74.586721 l -0.482474,-61.10133 c 0,-6.030871 3.721908,-10.924487 8.339836,-10.924487 h 35.668277 c 4.61793,0 8.33984,4.893616 8.33984,10.924487 z"
       id="path11"
       clip-path="none"
       style="fill:#f69b76;stroke-width:0.344621" />
    <path
       class="st3"
       d="m 101.01916,189.47158 h -0.44801 c -14.33623,0 -25.984429,-11.78604 -25.984429,-26.12229 v -0.0689 h 52.382419 v 0.0689 c 0,14.33625 -11.61374,26.12229 -25.94998,26.12229 z"
       id="path13"
       clip-path="none"
       style="fill:#4d4d4d;stroke-width:0.344621" />
    <rect
       x="81.823769"
       y="163.28036"
       class="st3"
       width="14.129467"
       height="117.86042"
       id="rect15"
       clip-path="none"
       style="fill:#4d4d4d;stroke-width:0.344621" />
    <rect
       x="-119.37791"
       y="-281.14178"
       transform="scale(-1)"
       class="st3"
       width="14.129467"
       height="117.86042"
       id="rect17"
       clip-path="none"
       style="fill:#4d4d4d;stroke-width:0.344621" />
    <path
       class="st4"
       d="m 92.369172,281.14079 v 14.12948 l -27.845384,0.13784 c 0,0 1.033863,-6.34102 7.891826,-7.5472 6.823499,-1.24063 12.613134,2.68805 12.613134,2.68805 l 0.723698,-9.40817 z"
       id="path19"
       clip-path="none"
       style="fill:#754c24;stroke-width:0.344621" />
    <path
       class="st4"
       d="m 108.94545,281.14079 v 14.12948 l 27.84538,0.13784 c 0,0 -1.03386,-6.34102 -7.89182,-7.5472 -6.8235,-1.24063 -12.61314,2.68805 -12.61314,2.68805 l -0.7237,-9.40817 z"
       id="path21"
       clip-path="none"
       style="fill:#754c24;stroke-width:0.344621" />
    <path
       class="st2"
       d="m 168.08244,136.08976 -0.44801,0.55141 c -2.10219,2.55018 -5.89303,2.92927 -8.44322,0.82709 l -42.83641,-34.5655 c -2.5502,-2.10219 -2.92928,-5.893026 -0.82709,-8.443214 l 0.44801,-0.551403 c 2.10219,-2.5502 5.89301,-2.929281 8.44321,-0.82709 l 42.83642,34.565497 c 2.55019,2.10219 2.92928,5.89303 0.82709,8.44321 z"
       id="path23"
       clip-path="none"
       style="fill:#f69b76;stroke-width:0.344621" />
    <path
       class="st2"
       d="m 132.552,164.62439 v 0 c -2.44682,-2.51573 -2.37789,-6.54779 0.17231,-8.9946 l 27.25953,-26.2946 c 2.51574,-2.4468 6.5478,-2.37789 8.9946,0.17231 v 0 c 2.44683,2.51574 2.3779,6.5478 -0.1723,8.99462 l -27.25953,26.29458 c -2.51574,2.41236 -6.5478,2.34343 -8.99461,-0.17231 z"
       id="path25"
       clip-path="none"
       style="fill:#f69b76;stroke-width:0.344621" />
    <g
       id="g39"
       clip-path="none"
       transform="matrix(0.34462113,0,0,0.34462113,-231.36792,-35.083549)">
      <path
         class="st5"
         d="m 1062.3,583.7 7.6,8.4 -26.3,23.8 c -2.3,2.1 -5.9,1.9 -8,-0.4 v 0 c -2.1,-2.3 -1.9,-5.9 0.4,-8 z"
         id="path27" />
      <path
         class="st5"
         d="m 1054.3,575 7.3,8.7 -32.8,27.7 c -2.4,2 -6,1.7 -8,-0.7 v 0 c -2,-2.4 -1.7,-6 0.7,-8 z"
         id="path29" />
      <path
         class="st5"
         d="m 1044.5,569.8 6.4,9.4 -35.6,24 c -2.6,1.8 -6.1,1.1 -7.9,-1.5 v 0 c -1.8,-2.6 -1.1,-6.1 1.5,-7.9 z"
         id="path31" />
      <path
         class="st5"
         d="m 1044.6,560.3 4.5,10.4 -39.4,17 c -2.9,1.2 -6.2,-0.1 -7.5,-3 v 0 c -1.2,-2.9 0.1,-6.2 3,-7.5 z"
         id="path33" />
      <path
         class="st5"
         d="m 1050,554.3 -0.7,11.3 -25.8,-1.5 c -3.1,-0.2 -5.5,-2.9 -5.3,-6 v 0 c 0.2,-3.1 2.9,-5.5 6,-5.3 z"
         id="path35" />
      <path
         class="st5"
         d="m 1043,556 -7.5,5.1 c -1.4,0.9 -1.7,2.8 -0.8,4.2 l 22.2,32.9 c 0.9,1.4 2.8,1.7 4.2,0.8 l 7.5,-5.1 c 5.2,-3.5 6.6,-10.5 3.1,-15.7 l -12.9,-19.1 c -3.5,-5.3 -10.6,-6.6 -15.8,-3.1 z"
         id="path37" />
    </g>
    <path
       class="st2"
       d="m 87.923565,96.217107 0.137845,0.689247 c 0.620318,3.273896 -1.550802,6.409946 -4.824701,6.995806 l -47.213087,8.78783 c -3.273912,0.62032 -6.409954,-1.55079 -6.99582,-4.82469 l -0.137845,-0.68925 c -0.620318,-3.27389 1.550802,-6.40994 4.824701,-6.9958 l 47.213087,-8.787843 c 3.239448,-0.585854 6.409954,1.550789 6.99582,4.8247 z"
       id="path41"
       clip-path="none"
       style="fill:#f69b76;stroke-width:0.344621" />
    <path
       class="st2"
       d="m 42.881572,63.030085 v 0 c 3.44622,0.654782 5.720719,3.99761 5.065937,7.443817 l -7.133664,37.184628 c -0.654769,3.4462 -3.997596,5.7207 -7.443817,5.06592 v 0 c -3.446207,-0.65478 -5.720707,-3.99759 -5.065924,-7.44382 l 7.133651,-37.184608 c 0.654782,-3.44622 3.99761,-5.720719 7.443817,-5.065937 z"
       id="path43"
       clip-path="none"
       style="fill:#f69b76;stroke-width:0.344621" />
    <g
       id="g57"
       clip-path="none"
       transform="matrix(0.34462113,0,0,0.34462113,-231.36792,-35.083549)">
      <path
         class="st5"
         d="m 785,296.3 -11.3,-0.6 2,-35.4 c 0.2,-3.1 2.9,-5.5 6,-5.4 v 0 c 3.1,0.2 5.5,2.9 5.4,6 z"
         id="path45" />
      <path
         class="st5"
         d="m 796.8,296.9 -11.3,-1 3.9,-42.7 c 0.3,-3.1 3,-5.4 6.2,-5.1 v 0 c 3.1,0.3 5.4,3 5.1,6.2 z"
         id="path47" />
      <path
         class="st5"
         d="m 807.4,293.7 -11.1,-2.2 8.4,-42.1 c 0.6,-3.1 3.6,-5.1 6.7,-4.5 v 0 c 3.1,0.6 5.1,3.6 4.5,6.7 z"
         id="path49" />
      <path
         class="st5"
         d="m 814.1,300.5 -10.5,-4.2 16,-39.8 c 1.2,-2.9 4.5,-4.3 7.4,-3.1 v 0 c 2.9,1.2 4.3,4.5 3.1,7.4 z"
         id="path51" />
      <path
         class="st5"
         d="m 814.4,308.6 -7.5,-8.5 19.4,-17.1 c 2.4,-2.1 5.9,-1.8 8,0.5 v 0 c 2.1,2.4 1.8,5.9 -0.5,8 z"
         id="path53" />
      <path
         class="st5"
         d="m 818.2,302.5 1.8,-8.9 c 0.3,-1.6 -0.7,-3.2 -2.4,-3.5 l -38.9,-7.8 c -1.6,-0.3 -3.2,0.7 -3.5,2.4 l -1.8,8.9 c -1.2,6.1 2.7,12.1 8.9,13.3 l 22.5,4.5 c 6.2,1.2 12.2,-2.7 13.4,-8.9 z"
         id="path55" />
    </g>
    <polygon
       class="st1"
       points="1068.4,238.4 1053,227.5 1053,186.2 1068.4,186.2 "
       id="polygon59"
       clip-path="none"
       style="fill:#333333"
       transform="matrix(0.34462113,0,0,0.34462113,-231.36792,-35.083549)" />
    <rect
       x="72.48455"
       y="36.563183"
       class="st1"
       width="12.509748"
       height="13.440224"
       id="rect61"
       clip-path="none"
       style="fill:#333333;stroke-width:0.344621" />
    <path
       class="st5"
       d="m 112.15042,90.082842 c 0,4.617928 -3.75636,8.443229 -8.37429,8.443229 v 0 h -0.0689 c -4.617912,0 -8.443213,-3.825301 -8.443213,-8.443229 V 82.67349 h 16.886433 z"
       id="path63"
       clip-path="none"
       style="fill:#f8c09d;stroke-width:0.344621" />
    <path
       class="st6"
       d="m 95.263989,88.152973 c 3.273899,1.412944 6.685651,2.171106 9.959551,2.171106 2.2745,0 4.61793,-0.379081 6.92688,-1.068327 V 83.914126 H 95.263989 Z"
       id="path65"
       clip-path="none"
       style="fill:#f6ae8d;stroke-width:0.344621" />
    <path
       class="st5"
       d="m 105.18908,86.429863 c -12.027282,0 -26.466905,-10.510943 -26.466905,-25.226268 V 16.91978 h 53.106115 v 44.283815 c 0,14.715325 -14.61194,25.226268 -26.63921,25.226268 z"
       id="path67"
       clip-path="none"
       style="fill:#f8c09d;stroke-width:0.344621" />
    <circle
       class="st5"
       cx="78.58432"
       cy="49.245247"
       id="circle69"
       clip-path="none"
       style="fill:#f8c09d;stroke-width:0.344621"
       r="7.5472031" />
    <path
       class="st7"
       d="m 77.067993,50.313572 c 0,-1.481873 1.206172,-2.688045 2.688045,-2.688045 0.413545,0 0.792626,0.103419 1.137256,0.241237 -0.482474,-0.79264 -1.309564,-1.309565 -2.308964,-1.309565 -1.481873,0 -2.688044,1.206172 -2.688044,2.688045 0,1.068328 0.620318,1.998798 1.550788,2.412344 -0.241237,-0.379081 -0.379081,-0.861555 -0.379081,-1.344016 z"
       id="path71"
       clip-path="none"
       style="fill:#ef937e;stroke-width:0.344621" />
    <circle
       class="st5"
       cx="132.41414"
       cy="49.245247"
       id="circle73"
       clip-path="none"
       style="fill:#f8c09d;stroke-width:0.344621"
       r="7.5472031" />
    <path
       class="st7"
       d="m 134.89542,50.313572 c 0,-1.481873 -1.20618,-2.688045 -2.68805,-2.688045 -0.41354,0 -0.79263,0.103419 -1.13724,0.241237 0.48246,-0.79264 1.30955,-1.309565 2.30896,-1.309565 1.48186,0 2.68805,1.206172 2.68805,2.688045 0,1.068328 -0.62032,1.998798 -1.55081,2.412344 0.24124,-0.379081 0.37909,-0.861555 0.37909,-1.344016 z"
       id="path75"
       clip-path="none"
       style="fill:#ef937e;stroke-width:0.344621" />
    <path
       class="st8"
       d="m 83.098865,15.506834 v 0.137848 h -3.308363 c -4.032074,0 -7.305972,3.204976 -7.305972,7.202582 v -0.06893 10.304173 8.47768 h 12.509754 v -3.825295 c 0,-2.550197 1.964334,-4.583462 4.548999,-4.583462 h 40.665287 c 4.85915,0 8.8223,-3.997604 8.8223,-8.856762 V 6.6156044 H 91.99009 C 87.130926,6.5811404 83.098865,10.682133 83.098865,15.50683 Z"
       id="path78"
       clip-path="none"
       style="fill:#333333;stroke:url(#SVGID_1_);stroke-width:0.344621;stroke-miterlimit:10" />
    <path
       class="st9"
       d="m 98.813589,62.237459 c 0,4.686843 3.825291,8.512144 8.512141,8.512144 v 0 c 4.68684,0 8.51213,-3.825301 8.51213,-8.512144"
       id="path80"
       clip-path="none"
       style="fill:none;stroke:#ef937e;stroke-width:1.56165;stroke-linecap:round;stroke-miterlimit:10" />
    <path
       class="st7"
       d="m 105.91279,53.277305 v 5.479482 c 0,0.241237 0.31015,0.44801 0.55139,0.44801 h 3.23943 c 0.89602,0 1.37849,-1.033863 0.79263,-1.688646 l -3.75636,-4.480083 c -0.2757,-0.344617 -0.82709,-0.172309 -0.82709,0.241237 z"
       id="path82"
       clip-path="none"
       style="fill:#ef937e;stroke-width:0.344621" />
    <ellipse
       class="st1"
       cx="96.608002"
       cy="50.141266"
       rx="1.7231057"
       ry="3.032666"
       id="ellipse84"
       clip-path="none"
       style="fill:#333333;stroke-width:0.344621" />
    <ellipse
       class="st1"
       cx="118.49146"
       cy="50.141266"
       rx="1.7231057"
       ry="3.032666"
       id="ellipse86"
       clip-path="none"
       style="fill:#333333;stroke-width:0.344621" />
  </g>
</svg>
